HIERARCHY
ROOT Hips
{
	OFFSET 0.00000 0.00000 0.00000
	CHANNELS 6 Xposition Yposition Zposition Zrotation Yrotation Xrotation 
	JOINT LHipJoint
	{
		OFFSET 0 0 0
		CHANNELS 3 Zrotation Yrotation Xrotation
		JOINT LeftUpLeg
		{
			OFFSET 1.84395 -1.68683 0.74144
			CHANNELS 3 Zrotation Yrotation Xrotation
			JOINT LeftLeg
			{
				OFFSET 2.27037 -6.23779 0.00000
				CHANNELS 3 Zrotation Yrotation Xrotation
				JOINT LeftFoot
				{
					OFFSET 2.56918 -7.05877 0.00000
					CHANNELS 3 Zrotation Yrotation Xrotation
					JOINT LeftToeBase
					{
						OFFSET 0.22276 -0.61202 1.71784
						CHANNELS 3 Zrotation Yrotation Xrotation
						End Site
						{
							OFFSET 0.00000 -0.00000 0.91613
						}
					}
				}
			}
		}
	}
	JOINT RHipJoint
	{
		OFFSET 0 0 0
		CHANNELS 3 Zrotation Yrotation Xrotation
		JOINT RightUpLeg
		{
			OFFSET -1.76833 -1.68684 0.74144
			CHANNELS 3 Zrotation Yrotation Xrotation
			JOINT RightLeg
			{
				OFFSET -2.49360 -6.85110 0.00000
				CHANNELS 3 Zrotation Yrotation Xrotation
				JOINT RightFoot
				{
					OFFSET -2.55538 -7.02085 0.00000
					CHANNELS 3 Zrotation Yrotation Xrotation
					JOINT RightToeBase
					{
						OFFSET -0.21516 -0.59115 1.68050
						CHANNELS 3 Zrotation Yrotation Xrotation
						End Site
						{
							OFFSET -0.00000 -0.00000 0.89604
						}
					}
				}
			}
		}
	}
	JOINT LowerBack
	{
		OFFSET 0 0 0
		CHANNELS 3 Zrotation Yrotation Xrotation
		JOINT Spine
		{
			OFFSET 0.06382 1.72312 -0.19613
			CHANNELS 3 Zrotation Yrotation Xrotation
			JOINT Spine1
			{
				OFFSET -0.00055 1.73507 0.23859
				CHANNELS 3 Zrotation Yrotation Xrotation
				JOINT Neck
				{
					OFFSET 0 0 0
					CHANNELS 3 Zrotation Yrotation Xrotation
					JOINT Neck1
					{
						OFFSET 0.03638 1.65562 0.09633
						CHANNELS 3 Zrotation Yrotation Xrotation
						JOINT Head
						{
							OFFSET 0.06388 1.62807 -0.32386
							CHANNELS 3 Zrotation Yrotation Xrotation
							End Site
							{
								OFFSET 0.00995 1.67644 -0.12021
							}
						}
					}
				}
				JOINT LeftShoulder
				{
					OFFSET 0 0 0
					CHANNELS 3 Zrotation Yrotation Xrotation
					JOINT LeftArm
					{
						OFFSET 3.09648 1.42991 0.28122
						CHANNELS 3 Zrotation Yrotation Xrotation
						JOINT LeftForeArm
						{
							OFFSET 5.11878 -0.00000 -0.00000
							CHANNELS 3 Zrotation Yrotation Xrotation
							JOINT LeftHand
							{
								OFFSET 3.59971 -0.00000 0.00000
								CHANNELS 3 Zrotation Yrotation Xrotation
								JOINT LeftFingerBase
								{
									OFFSET 0 0 0
									CHANNELS 3 Zrotation Yrotation Xrotation
									JOINT LeftHandIndex1
									{
										OFFSET 0.62877 -0.00000 0.00000
										CHANNELS 3 Zrotation Yrotation Xrotation
										End Site
										{
											OFFSET 0.50693 -0.00000 0.00000
										}
									}
								}
								JOINT LThumb
								{
									OFFSET 0 0 0
									CHANNELS 3 Zrotation Yrotation Xrotation
									End Site
									{
										OFFSET 0.51467 -0.00000 0.51467
									}
								}
							}
						}
					}
				}
				JOINT RightShoulder
				{
					OFFSET 0 0 0
					CHANNELS 3 Zrotation Yrotation Xrotation
					JOINT RightArm
					{
						OFFSET -3.33565 1.14597 0.05047
						CHANNELS 3 Zrotation Yrotation Xrotation
						JOINT RightForeArm
						{
							OFFSET -5.49020 -0.00000 0.00000
							CHANNELS 3 Zrotation Yrotation Xrotation
							JOINT RightHand
							{
								OFFSET -3.20659 -0.00000 -0.00000
								CHANNELS 3 Zrotation Yrotation Xrotation
								JOINT RightFingerBase
								{
									OFFSET 0 0 0
									CHANNELS 3 Zrotation Yrotation Xrotation
									JOINT RightHandIndex1
									{
										OFFSET -0.69188 -0.00000 0.00000
										CHANNELS 3 Zrotation Yrotation Xrotation
										End Site
										{
											OFFSET -0.55781 -0.00000 0.00000
										}
									}
								}
								JOINT RThumb
								{
									OFFSET 0 0 0
									CHANNELS 3 Zrotation Yrotation Xrotation
									End Site
									{
										OFFSET -0.56633 -0.00000 0.56633
									}
								}
							}
						}
					}
				}
			}
		}
	}
}
MOTION
Frames: 10
Frame Time: .0083333
-0.5459 17.5004 8.0038 0 0 0 0 0 0 -21 0 0 0 0 0 0 0 0 0 0 0 0 0 0 21 0 0 0 0 0 0 0 0 0 0 0 0 0 0 0 0 0 0 0 0 0 0 -16 0 0 21 0 0 11 0 0 0 -8 0 0 0 0 0 0 0 0 0 0 0 0 0 0 0 0 0 0 0 0 8 0 0 0 0 0 0 0 0 0 0 0 0 0 0 0 0 0
-0.5459 17.5004 8.0038 -7.2363 -3.3941 9.3747 0.0000 0.0000 0.0000 -26.5554 -44.9762 31.1271 0.0628 -1.6167 -4.4476 -4.0958 45.9273 -53.3526 1.1327 6.7593 19.0043 0.0000 0.0000 0.0000 24.7793 24.5581 6.5463 -0.0006 -0.1619 0.4448 0.7700 -19.1788 -19.5111 -0.0069 0.5359 -1.4725 3.8723 1.6489 0.5173 0.6927 2.5316 -9.8115 -1.6590 0.9326 -10.6011 -7.7815 -11.4118 -3.8178 11.8609 -17.5763 19.8363 3.5068 -8.0603 8.5470 -0.0000 0.0000 0.0000 -89.9222 8.4768 10.6458 9.9885 -16.7216 -1.4716 -0.0000 -0.0000 29.7074 16.3995 -12.3470 -3.6010 -7.1250 0.0000 -0.0000 -7.5249 17.1947 5.0077 -0.0000 0.0000 0.0000 94.0034 -8.0517 -4.4859 -12.5613 20.6411 -2.2963 0.0000 0.0000 45.9601 6.5655 -31.1498 -3.4071 7.1250 -0.0000 -0.0000 40.8075 -56.1809 -12.6683
-0.5472 17.4994 8.0031 -7.3012 -3.3789 9.3726 0.0000 0.0000 0.0000 -26.5801 -45.0760 31.2666 0.0626 -1.6147 -4.4418 -3.9530 45.8722 -53.6236 1.1467 6.7997 19.1234 0.0000 0.0000 0.0000 24.8799 24.6103 6.5722 -0.0006 -0.1635 0.4493 0.7789 -19.2324 -19.5095 -0.0061 0.5062 -1.3911 3.9066 1.5724 0.4686 0.8687 2.4452 -9.8815 -1.4811 0.8947 -10.6639 -8.2079 -11.2610 -3.4169 11.8966 -17.3278 19.7135 3.6402 -7.9933 8.4464 -0.0000 0.0000 0.0000 -90.2176 8.6526 10.1766 9.9798 -16.7079 -1.4691 -0.0000 -0.0000 29.8024 16.5801 -12.4740 -3.6796 -7.1250 0.0000 -0.0000 -7.4000 17.0502 4.9468 -0.0000 0.0000 0.0000 93.6933 -8.2651 -4.1001 -12.5421 20.6126 -2.2896 0.0000 0.0000 45.7367 6.4635 -31.2678 -3.3652 7.1250 -0.0000 -0.0000 40.8236 -56.2934 -12.7923
-0.5483 17.4987 8.0030 -7.3195 -3.3634 9.3651 0.0000 0.0000 0.0000 -26.5948 -45.0986 31.3126 0.0623 -1.6111 -4.4321 -3.9475 45.8844 -53.6601 1.1519 6.8145 19.1669 0.0000 0.0000 0.0000 24.9179 24.6183 6.5820 -0.0007 -0.1668 0.4583 0.7879 -19.2794 -19.4915 -0.0075 0.5588 -1.5356 3.8840 1.4882 0.4208 1.0427 2.3449 -9.9549 -1.2725 0.8550 -10.7330 -8.6715 -11.0977 -3.0027 11.9843 -17.0810 19.6319 3.7963 -7.9243 8.3649 0.0000 -0.0000 0.0000 -90.5374 8.8310 9.6338 9.9883 -16.7212 -1.4716 -0.0000 -0.0000 29.8889 16.6212 -12.4354 -3.6780 -7.1250 0.0000 -0.0000 -7.3713 17.0868 4.9213 0.0000 -0.0000 0.0000 93.3847 -8.5146 -3.7121 -12.5423 20.6129 -2.2896 0.0000 0.0000 45.5765 6.5213 -31.3630 -3.4048 7.1250 -0.0000 -0.0000 40.9642 -56.3553 -12.9128
-0.5480 17.4990 8.0025 -7.3128 -3.3501 9.3603 0.0000 0.0000 0.0000 -26.6349 -45.1217 31.3446 0.0621 -1.6080 -4.4235 -4.0024 45.9438 -53.6264 1.1485 6.8048 19.1383 0.0000 0.0000 0.0000 24.9097 24.6050 6.5867 -0.0006 -0.1633 0.4487 0.7864 -19.2800 -19.5123 -0.0074 0.5543 -1.5231 3.8525 1.3932 0.3866 1.2208 2.2307 -10.0295 -1.0534 0.8094 -10.8122 -9.1938 -10.9396 -2.6764 12.0724 -16.8496 19.6462 3.9532 -7.8594 8.3376 0.0000 0.0000 0.0000 -90.8935 8.9596 8.9012 9.9965 -16.7341 -1.4739 -0.0000 -0.0000 30.0840 16.4638 -12.2811 -3.5969 -7.1250 0.0000 -0.0000 -7.4800 17.2577 4.9670 0.0000 0.0000 0.0000 93.0604 -8.7727 -3.3515 -12.5456 20.6178 -2.2908 0.0000 0.0000 45.5662 6.7065 -31.4010 -3.5059 7.1250 -0.0000 -0.0000 41.1679 -56.3465 -12.9846
-0.5507 17.5032 8.0034 -7.1276 -3.4192 9.4540 0.0000 0.0000 0.0000 -26.8755 -45.3191 31.3527 0.0604 -1.5861 -4.3630 -3.8219 45.8931 -53.9990 1.1910 6.9253 19.4942 0.0000 0.0000 0.0000 24.6624 24.7824 6.5351 -0.0005 -0.1486 0.4082 0.8008 -19.3864 -19.5528 -0.0025 0.3244 -0.8912 3.4923 1.1981 0.1700 1.5670 1.9688 -10.2078 -0.4532 0.7300 -10.9194 -10.2209 -10.6018 -1.9762 12.2275 -16.3572 19.5977 4.2649 -7.7205 8.2373 0.0000 0.0000 0.0000 -91.6500 9.3400 7.7062 10.0365 -16.7966 -1.4855 -0.0000 -0.0000 30.0681 16.2882 -12.2038 -3.5345 -7.1250 0.0000 -0.0000 -7.6020 17.3503 5.0339 0.0000 0.0000 0.0000 92.2822 -9.1914 -2.5210 -12.3958 20.3955 -2.2383 0.0000 0.0000 45.5476 6.6237 -31.3338 -3.4557 7.1250 -0.0000 -0.0000 41.0302 -56.3115 -12.8931
-0.5577 17.5089 8.0225 -6.8225 -3.3716 9.6555 0.0000 0.0000 0.0000 -27.3438 -45.6823 31.4537 0.0585 -1.5613 -4.2948 -3.6665 45.9148 -54.4312 1.2197 7.0052 19.7308 0.0000 0.0000 0.0000 24.2797 24.8447 6.5098 -0.0001 -0.0583 0.1601 0.8364 -19.5910 -19.5292 -0.0000 -0.0278 0.0763 3.0879 1.1984 -0.4027 1.4886 1.9099 -10.2082 -0.2948 0.7394 -10.5807 -10.1826 -10.6128 -1.9513 12.1851 -16.3577 19.5229 4.2465 -7.7240 8.2007 0.0000 -0.0000 0.0000 -91.6186 9.1784 7.3459 9.9829 -16.7128 -1.4700 -0.0000 -0.0000 29.9073 16.0688 -12.3033 -3.5123 -7.1250 0.0000 -0.0000 -7.7545 17.2643 5.1514 0.0000 -0.0000 0.0000 92.2039 -9.1121 -2.5480 -12.1365 20.0090 -2.1488 0.0000 0.0000 45.5557 6.2216 -31.2164 -3.2338 7.1250 -0.0000 -0.0000 40.5561 -56.3032 -12.6972
-0.5621 17.5123 8.0293 -6.6524 -3.3842 9.7237 0.0000 0.0000 0.0000 -27.5920 -45.8325 31.5079 0.0578 -1.5509 -4.2660 -3.6608 45.9928 -54.5830 1.2212 7.0094 19.7433 0.0000 0.0000 0.0000 24.0753 24.9154 6.5105 -0.0000 -0.0254 0.0698 0.8540 -19.6980 -19.5307 -0.0009 -0.1983 0.5447 2.8626 1.2118 -0.6210 1.4380 1.9012 -10.1992 -0.2181 0.7547 -10.4421 -10.1886 -10.6044 -1.9503 12.1821 -16.3348 19.4560 4.2493 -7.7154 8.1754 0.0000 -0.0000 0.0000 -91.6002 9.0200 7.0021 10.0475 -16.8138 -1.4886 -0.0000 -0.0000 30.1216 15.3102 -11.5037 -3.1250 -7.1250 0.0000 -0.0000 -8.2871 18.1367 5.3521 0.0000 -0.0000 0.0000 92.1787 -9.0858 -2.6210 -11.9907 19.7907 -2.0991 0.0000 0.0000 45.5857 6.1220 -31.1709 -3.1775 7.1250 -0.0000 -0.0000 40.4233 -56.2883 -12.6296
-0.5629 17.5130 8.0287 -6.6492 -3.3866 9.7042 0.0000 0.0000 0.0000 -27.5687 -45.7801 31.4747 0.0578 -1.5518 -4.2686 -3.7393 46.0349 -54.4614 1.2107 6.9803 19.6571 0.0000 0.0000 0.0000 24.0732 24.8836 6.5153 -0.0000 -0.0256 0.0704 0.8470 -19.6572 -19.5344 -0.0015 -0.2489 0.6839 2.8465 1.2149 -0.6388 1.4457 1.9036 -10.1718 -0.2007 0.7585 -10.4008 -10.2672 -10.5787 -2.0405 12.2091 -16.2919 19.4679 4.2702 -7.6939 8.1994 0.0000 0.0000 0.0000 -91.6070 8.9016 6.9528 10.1901 -17.0365 -1.5302 -0.0000 -0.0000 29.9369 14.5222 -10.4316 -2.6852 -7.1250 0.0000 -0.0000 -8.8579 19.2791 5.5023 0.0000 0.0000 0.0000 92.1849 -9.0989 -2.8220 -11.9535 19.7349 -2.0866 0.0000 0.0000 45.8253 6.3571 -31.1451 -3.2978 7.1250 -0.0000 -0.0000 40.6138 -56.2201 -12.6334
-0.5640 17.5135 8.0276 -6.6476 -3.3764 9.7147 0.0000 0.0000 0.0000 -27.5207 -45.7728 31.4173 0.0578 -1.5512 -4.2669 -3.7130 45.9971 -54.4602 1.2136 6.9881 19.6802 0.0000 0.0000 0.0000 24.0551 24.8422 6.4684 -0.0000 -0.0284 0.0781 0.8397 -19.6107 -19.5288 -0.0016 -0.2612 0.7177 2.8346 1.2277 -0.6639 1.4327 1.9181 -10.1739 -0.2086 0.7662 -10.3875 -10.2479 -10.5608 -2.0889 12.1608 -16.2563 19.4920 4.2527 -7.6765 8.2057 -0.0000 -0.0000 0.0000 -91.5311 8.8241 6.8378 10.1794 -17.0197 -1.5270 -0.0000 -0.0000 29.4211 14.6164 -10.9455 -2.8348 -7.1250 0.0000 -0.0000 -8.7813 18.7504 5.5581 -0.0000 -0.0000 0.0000 92.2170 -9.1661 -3.0207 -11.9286 19.6975 -2.0782 0.0000 0.0000 46.0046 6.5710 -31.3647 -3.4310 7.1250 -0.0000 -0.0000 41.0111 -56.3464 -12.9221
